<svg id="Layer_1" data-name="Layer 1" xmlns="http://www.w3.org/2000/svg" xmlns:xlink="http://www.w3.org/1999/xlink" viewBox="0 0 1683 544">
<defs>
    <style>
        .cls-1{fill:#0eaf9c;}.cls-2{fill:url(#Degradado_sin_nombre_3);}.cls-3{fill:url(#linear-gradient);}.cls-4{fill:url(#Degradado_sin_nombre_3-2);}.cls-5{fill:#884cfe;}.cls-6{fill:#fff;}</style>
    <linearGradient id="Degradado_sin_nombre_3" x1="123.5" y1="215.57" x2="305.01" y2="215.57"
        gradientTransform="translate(0 0)" gradientUnits="userSpaceOnUse">
        <stop offset="0" stop-color="#2ad3f8" />
        <stop offset="0.98" stop-color="#933cff" />
    </linearGradient>
    <linearGradient id="linear-gradient" x1="231.54" y1="302.69" x2="461.88" y2="302.69"
        gradientUnits="userSpaceOnUse">
        <stop offset="0" stop-color="#02adff" />
        <stop offset="0.05" stop-color="#02affb" />
        <stop offset="1" stop-color="#01cfb8" />
    </linearGradient>
    <linearGradient id="Degradado_sin_nombre_3-2" x1="140.13" y1="360.95" x2="401.93" y2="360.95"
        gradientTransform="matrix(1, 0, 0, 1, 0, 0)" xlink:href="#Degradado_sin_nombre_3" />
</defs>
<title>logo-white</title>
<path class="cls-1"
    d="M459.34,213.19C437,300,321.89,248.43,304.89,240.28c8.88-7.38,119.74-97.82,153-31.82a15,15,0,0,1,1.38,4.12C459.27,212.77,459.31,213,459.34,213.19Z" />
<path class="cls-2"
    d="M305,240.34l-73.47,65.84c-1-2.13-1.45-3.31-1.45-3.31s-59-102.25-103.74-23.84c-1-5.33-1.76-10.54-2.3-15.54C118,209,163.43,109,202.82,127.15S239.17,218,304.31,240.76c0,0,.19-.15.55-.48h0S305,240.31,305,240.34Z" />
<path class="cls-3"
    d="M442.16,330.14c-10.18,19.33-23.42,37.3-40.2,51.93l0,0c-110.07,41.35-161.42-56.47-170.39-75.92L305,240.34c17.39,8.3,132.06,59.44,154.33-27.15C461.52,225.77,468.7,279.7,442.16,330.14Z" />
<path class="cls-4"
    d="M401.93,382.1c-33.18,29-80.2,44.93-144.58,32.87-64.2-12-99.19-50.65-117.22-91.22,26.06,26,80.75-7.06,90-20.88,0,0,.48,1.18,1.45,3.31C240.51,325.63,291.86,423.45,401.93,382.1Z" />
<path class="cls-5"
    d="M230.09,302.87c-9.21,13.82-63.9,46.87-90,20.88a201.53,201.53,0,0,1-13.78-44.69v0C171.07,200.62,230.09,302.87,230.09,302.87Z" />
<path class="cls-6"
    d="M648.46,291l-27.28-6.7q-16.27-4.06-23.93-10.17t-7.66-16.63q0-11.85,11.19-19.57t28.06-7.71q12.31,0,20.22,3.94a35.13,35.13,0,0,1,12.5,10,49,49,0,0,1,7,12.38l25.36-7.18a64.68,64.68,0,0,0-22.19-31.59q-15.62-12-42.9-12-19.38,0-34.64,6.82t-24.05,18.78a45.21,45.21,0,0,0-8.8,27.52q0,19,11.79,31.65t37,18.61l30.64,7.18q13.88,3.23,20.57,9.75a21.56,21.56,0,0,1,6.71,16.09q0,11.85-11.67,20.28T625,370.88q-17.35,0-28.06-7.42T582.41,341.2l-26.8,6.7q4.9,23.46,23.33,35.66t46.55,12.21q21.42,0,37.57-7.18T688.25,369a46.84,46.84,0,0,0,9-28.23q0-19.28-12.08-31.53T648.46,291Z" />
<path class="cls-6"
    d="M867.91,226a70.7,70.7,0,0,0-25.49-15.5,87.14,87.14,0,0,0-28.36-4.78q-24.88,0-43.49,12.14t-29,33.74q-10.35,21.6-10.35,49.84T741.61,351a77.68,77.68,0,0,0,29.56,33q19.2,11.79,45.76,11.79,18.68,0,33.63-5.81a69.37,69.37,0,0,0,25.12-16.27,60,60,0,0,0,14.48-24.35l-27.28-7.66a42.82,42.82,0,0,1-10.17,16,42.12,42.12,0,0,1-15.61,9.57,60.75,60.75,0,0,1-20.17,3.17q-17.1,0-30-7.48A50.89,50.89,0,0,1,766.74,341q-6.57-13.06-7.15-31.41H893v-12q0-25.72-6.83-43.31T867.91,226ZM759.65,285.21A62.76,62.76,0,0,1,766.08,261a55.32,55.32,0,0,1,18.85-21.6q12.26-8.33,29.13-8.32,15.32,0,26.62,7.06a47.48,47.48,0,0,1,17.48,19.27,60.83,60.83,0,0,1,6.16,27.76Z" />
<path class="cls-6"
    d="M1064.14,226a70.7,70.7,0,0,0-25.49-15.5,87.1,87.1,0,0,0-28.36-4.78q-24.88,0-43.49,12.14t-29,33.74q-10.35,21.6-10.35,49.84T937.84,351a77.68,77.68,0,0,0,29.56,33q19.2,11.79,45.76,11.79,18.67,0,33.63-5.81a69.37,69.37,0,0,0,25.12-16.27,60,60,0,0,0,14.48-24.35l-27.28-7.66a42.82,42.82,0,0,1-10.17,16,42.12,42.12,0,0,1-15.61,9.57,60.75,60.75,0,0,1-20.17,3.17q-17.1,0-30-7.48A51,51,0,0,1,963,341q-6.57-13.06-7.16-31.41h133.45v-12q0-25.72-6.82-43.31T1064.14,226ZM955.88,285.21A62.76,62.76,0,0,1,962.31,261a55.32,55.32,0,0,1,18.85-21.6q12.26-8.33,29.13-8.32,15.32,0,26.63,7.06a47.52,47.52,0,0,1,17.47,19.27,60.83,60.83,0,0,1,6.16,27.76Z" />
<rect class="cls-6" x="1134.61" y="146.89" width="21.3" height="245.05" />
<path class="cls-6"
    d="M1321,217.9a63.06,63.06,0,0,0-21.24-9.51,93.47,93.47,0,0,0-22-2.75,97.69,97.69,0,0,0-27.65,4,69.35,69.35,0,0,0-24.64,13.05q-11,9-17.23,24.11l20.22,7.3q5-11.85,17.53-20.59t32.36-8.73q20.94,0,32.13,10.83t11.19,29.61v4.31q0,6.95-5.63,10.05t-16.33,4.55q-10.71,1.44-26.14,3.35a209.37,209.37,0,0,0-28.48,5.38,80.69,80.69,0,0,0-22.37,9.46,41.85,41.85,0,0,0-14.6,15.31q-5.16,9.33-5.15,23,0,17.7,8.14,30.09a52.47,52.47,0,0,0,21.89,18.9,70.08,70.08,0,0,0,30.4,6.53q15.32,0,26.68-4.91a59,59,0,0,0,18.91-12.56,57.87,57.87,0,0,0,11.36-15.8h1.32v29.08h21.3V267.14q0-18.44-6.1-30.45A49.4,49.4,0,0,0,1321,217.9Zm.72,103.56A57.11,57.11,0,0,1,1315,349a52,52,0,0,1-19.21,20q-12.43,7.55-29.43,7.54-18.07,0-30-9.15t-12-25.91q0-11.12,5.86-18.24t16.87-11.19a119.19,119.19,0,0,1,26.57-6q5.74-.72,12.92-1.68t14.42-2.33a109.32,109.32,0,0,0,12.8-3.17q5.57-1.8,8-4.07Z" />
<path class="cls-6"
    d="M1549.93,250.8q-9.59-21.35-26.69-33.26t-39.72-11.9q-16.87,0-27.94,5.92a54.91,54.91,0,0,0-17.83,14.66,80.09,80.09,0,0,0-10.35,17h-1.91V146.89h-21.42V391.94h20.7v-34.1h2.63A83.5,83.5,0,0,0,1437.93,375a55.37,55.37,0,0,0,18,14.77q11.19,6,27.94,6,22.48,0,39.54-12T1550,350.42q9.51-21.42,9.51-49.9T1549.93,250.8Zm-18.43,88q-6.59,17.24-19.26,27.34t-31,10.11q-17.84,0-30.34-9.75t-19.14-26.92q-6.64-17.18-6.64-39.43,0-22,6.58-38.94t19.08-26.57q12.51-9.63,30.46-9.63,18.42,0,31.11,10t19.2,27q6.53,17,6.52,38.17Q1538.08,321.58,1531.5,338.81Z" />
</svg>
